<?xml version="1.0" encoding="UTF-8" standalone="no"?>
<!DOCTYPE svg PUBLIC "-//W3C//DTD SVG 1.1//EN" "http://www.w3.org/Graphics/SVG/1.1/DTD/svg11.dtd">
<svg xmlns="http://www.w3.org/2000/svg" version="1.1" viewBox="0.00 0.00 24.00 24.00">
<g stroke-width="2.00" fill="none" stroke-linecap="butt">
<path stroke="#99dda2" vector-effect="non-scaling-stroke" d="
  M 3.66 6.67
  Q 0.72 11.95 3.58 17.15
  A 1.44 1.41 -51.4 0 1 3.70 18.29
  L 3.00 20.51
  A 0.42 0.42 0.0 0 0 3.51 21.04
  L 6.04 20.36
  A 1.21 1.21 0.0 0 1 6.89 20.44
  Q 14.67 24.15 20.09 17.77"
/>
<path stroke="#a4e4ab" vector-effect="non-scaling-stroke" d="
  M 20.09 17.77
  C 24.95 10.20 19.49 1.20 10.51 2.14
  Q 6.32 2.58 3.66 6.67"
/>
<path stroke="#3ec250" vector-effect="non-scaling-stroke" d="
  M 20.09 17.77
  Q 20.38 16.17 19.25 16.22
  Q 18.46 16.26 17.78 16.26"
/>
<path stroke="#a4e4ab" vector-effect="non-scaling-stroke" d="
  M 17.78 16.26
  Q 18.34 14.97 17.30 14.19
  Q 15.39 12.76 14.04 14.43
  A 1.00 0.99 32.7 0 1 12.82 14.69
  Q 10.69 13.61 9.32 11.66
  A 0.75 0.74 44.7 0 1 9.31 10.82
  Q 10.64 8.82 8.67 6.55
  Q 8.29 6.12 7.76 6.35
  Q 6.56 6.88 6.03 8.25"
/>
<path stroke="#3ec250" vector-effect="non-scaling-stroke" d="
  M 6.03 8.25
  L 5.69 7.80
  Q 5.39 7.40 4.89 7.43
  Q 4.04 7.48 3.66 6.67"
/>
<path stroke="#99dda2" vector-effect="non-scaling-stroke" d="
  M 17.78 16.26
  C 14.33 20.66 5.36 13.02 6.03 8.25"
/>
</g>
<path fill="#fefefd" d="
  M 10.37 0.00
  L 13.96 0.00
  Q 22.44 2.13 24.00 10.62
  L 24.00 13.21
  Q 22.52 21.37 15.01 23.47
  Q 11.02 24.59 6.90 22.62
  A 1.40 1.39 50.4 0 0 5.97 22.53
  L 0.36 24.00
  L 0.00 24.00
  Q -0.06 23.66 0.00 23.56
  L 1.47 18.65
  Q 1.61 18.17 1.48 17.70
  L 0.00 12.35
  L 0.00 11.51
  Q 1.14 2.10 10.37 0.00
  Z
  M 3.66 6.67
  Q 0.72 11.95 3.58 17.15
  A 1.44 1.41 -51.4 0 1 3.70 18.29
  L 3.00 20.51
  A 0.42 0.42 0.0 0 0 3.51 21.04
  L 6.04 20.36
  A 1.21 1.21 0.0 0 1 6.89 20.44
  Q 14.67 24.15 20.09 17.77
  C 24.95 10.20 19.49 1.20 10.51 2.14
  Q 6.32 2.58 3.66 6.67
  Z"
/>
<path fill="#49c958" d="
  M 20.09 17.77
  Q 20.38 16.17 19.25 16.22
  Q 18.46 16.26 17.78 16.26
  Q 18.34 14.97 17.30 14.19
  Q 15.39 12.76 14.04 14.43
  A 1.00 0.99 32.7 0 1 12.82 14.69
  Q 10.69 13.61 9.32 11.66
  A 0.75 0.74 44.7 0 1 9.31 10.82
  Q 10.64 8.82 8.67 6.55
  Q 8.29 6.12 7.76 6.35
  Q 6.56 6.88 6.03 8.25
  L 5.69 7.80
  Q 5.39 7.40 4.89 7.43
  Q 4.04 7.48 3.66 6.67
  Q 6.32 2.58 10.51 2.14
  C 19.49 1.20 24.95 10.20 20.09 17.77
  Z"
/>
<path fill="#fefefd" d="
  M 17.78 16.26
  C 14.33 20.66 5.36 13.02 6.03 8.25
  Q 6.56 6.88 7.76 6.35
  Q 8.29 6.12 8.67 6.55
  Q 10.64 8.82 9.31 10.82
  A 0.75 0.74 44.7 0 0 9.32 11.66
  Q 10.69 13.61 12.82 14.69
  A 1.00 0.99 32.7 0 0 14.04 14.43
  Q 15.39 12.76 17.30 14.19
  Q 18.34 14.97 17.78 16.26
  Z"
/>
<path fill="#33bb47" d="
  M 3.66 6.67
  Q 4.04 7.48 4.89 7.43
  Q 5.39 7.40 5.69 7.80
  L 6.03 8.25
  C 5.36 13.02 14.33 20.66 17.78 16.26
  Q 18.46 16.26 19.25 16.22
  Q 20.38 16.17 20.09 17.77
  Q 14.67 24.15 6.89 20.44
  A 1.21 1.21 0.0 0 0 6.04 20.36
  L 3.51 21.04
  A 0.42 0.42 0.0 0 1 3.00 20.51
  L 3.70 18.29
  A 1.44 1.41 -51.4 0 0 3.58 17.15
  Q 0.72 11.95 3.66 6.67
  Z"
/>
</svg>
