<?xml version="1.0" encoding="UTF-8" standalone="no"?>
<!DOCTYPE svg PUBLIC "-//W3C//DTD SVG 1.1//EN" "http://www.w3.org/Graphics/SVG/1.1/DTD/svg11.dtd">
<svg xmlns="http://www.w3.org/2000/svg" version="1.1" viewBox="0.00 0.00 40.00 40.00">
<g stroke-width="2.00" fill="none" stroke-linecap="butt">
<path stroke="#706746" vector-effect="non-scaling-stroke" d="
  M 29.71 35.55
  L 28.73 34.93"
/>
<path stroke="#706746" vector-effect="non-scaling-stroke" d="
  M 27.02 30.55
  Q 27.00 29.34 26.68 29.01"
/>
</g>
<path fill="#bb4517" fill-opacity="0.996" d="
  M 18.88 0.00
  L 21.46 0.00
  Q 27.22 3.93 22.10 9.44
  Q 21.55 10.03 22.35 10.04
  C 25.16 10.07 29.01 11.14 29.02 14.70
  Q 29.03 18.59 28.93 22.20
  A 0.51 0.51 0.0 0 1 28.42 22.69
  L 28.08 22.69
  A 0.30 0.30 0.0 0 1 27.78 22.39
  Q 27.76 18.16 27.72 14.58
  Q 27.70 12.55 25.63 11.91
  C 22.61 10.98 12.06 9.67 12.07 15.06
  Q 12.07 18.84 12.03 22.19
  Q 12.03 22.53 11.70 22.54
  L 11.30 22.56
  Q 10.93 22.57 10.93 22.20
  Q 10.89 17.90 10.97 14.36
  C 11.03 11.08 15.05 10.05 17.72 10.00
  Q 18.39 9.99 17.89 9.55
  C 14.94 6.91 14.25 1.43 18.88 0.00
  Z
  M 19.9361 8.8199
  A 3.89 3.21 90.5 0 0 23.1799 4.9580
  A 3.89 3.21 90.5 0 0 20.0039 1.0401
  A 3.89 3.21 90.5 0 0 16.7601 4.9020
  A 3.89 3.21 90.5 0 0 19.9361 8.8199
  Z"
/>
<rect fill="#796138" fill-opacity="0.992" x="-0.64" y="-3.49" transform="translate(15.38,19.12) rotate(-0.1)" width="1.28" height="6.98" rx="0.61"/>
<rect fill="#bb4517" fill-opacity="0.996" x="-0.60" y="-3.52" transform="translate(24.57,19.15) rotate(-0.1)" width="1.20" height="7.04" rx="0.58"/>
<path fill="#bb4517" fill-opacity="0.996" d="
  M 40.00 23.05
  L 40.00 24.48
  L 29.71 35.55
  L 28.73 34.93
  L 38.21 24.83
  Q 39.01 23.98 38.54 22.90
  Q 37.53 20.58 34.85 22.76
  A 11.85 1.06 -35.6 0 0 32.48 24.80
  Q 29.62 27.53 27.02 30.55
  Q 27.00 29.34 26.68 29.01
  Q 32.37 22.72 34.44 21.43
  Q 38.35 19.00 40.00 23.05
  Z"
/>
<path fill="#268975" d="
  M 26.68 29.01
  Q 27.00 29.34 27.02 30.55
  Q 21.64 33.18 13.50 32.18
  A 0.51 0.50 1.5 0 1 13.05 31.72
  Q 13.02 31.34 13.31 31.12
  Q 13.51 30.95 13.78 30.96
  Q 18.04 31.02 22.04 30.94
  Q 23.67 30.91 23.70 29.28
  Q 23.70 29.09 23.65 28.91
  Q 23.32 27.72 22.09 27.72
  Q 17.40 27.73 13.34 27.41
  C 10.81 27.20 8.56 30.33 6.91 31.86
  Q 6.52 32.21 6.00 32.24
  Q 3.99 32.35 2.20 32.12
  Q 1.25 32.00 1.25 32.96
  L 1.25 37.78
  Q 1.25 38.78 2.26 38.77
  Q 11.35 38.70 22.30 38.79
  Q 24.21 38.80 25.75 37.80
  Q 27.42 36.71 28.73 34.93
  L 29.71 35.55
  Q 27.51 38.82 24.14 40.00
  L 0.00 40.00
  L 0.00 31.16
  L 5.37 30.99
  Q 6.07 30.97 6.56 30.48
  C 8.66 28.39 10.56 25.81 13.91 26.17
  Q 17.74 26.58 21.72 26.46
  C 23.52 26.41 24.97 27.68 24.92 29.52
  Q 24.90 30.16 25.51 29.95
  Q 26.13 29.72 26.68 29.01
  Z"
/>
</svg>
