<?xml version="1.0" encoding="UTF-8" standalone="no"?>
<!DOCTYPE svg PUBLIC "-//W3C//DTD SVG 1.1//EN" "http://www.w3.org/Graphics/SVG/1.1/DTD/svg11.dtd">
<svg xmlns="http://www.w3.org/2000/svg" version="1.1" viewBox="0.00 0.00 40.00 40.00">
<g stroke-width="2.00" fill="none" stroke-linecap="butt">
<path stroke="#79633b" vector-effect="non-scaling-stroke" d="
  M 27.24 16.42
  Q 26.50 16.71 26.05 16.52"
/>
<path stroke="#676b41" vector-effect="non-scaling-stroke" d="
  M 30.30 19.46
  Q 29.33 19.91 29.73 20.49"
/>
</g>
<path fill="#c04015" d="
  M 40.00 4.04
  L 40.00 10.08
  Q 37.52 11.84 33.17 11.34
  C 31.24 11.11 30.69 9.78 30.88 8.06
  Q 30.96 7.37 30.27 7.39
  L 27.93 7.45
  Q 27.25 7.47 27.25 8.15
  L 27.24 16.42
  Q 26.50 16.71 26.05 16.52
  L 26.03 6.96
  A 0.85 0.84 0.7 0 1 26.91 6.11
  L 30.29 6.20
  Q 30.89 6.22 30.88 5.62
  L 30.87 4.49
  A 2.23 2.22 -1.2 0 1 33.03 2.25
  C 35.20 2.19 39.20 1.47 40.00 4.04
  Z
  M 38.7359 4.4242
  A 0.95 0.95 0.0 0 0 37.7843 3.4759
  L 33.0443 3.4841
  A 0.95 0.95 0.0 0 0 32.0959 4.4358
  L 32.1041 9.1158
  A 0.95 0.95 0.0 0 0 33.0557 10.0641
  L 37.7957 10.0559
  A 0.95 0.95 0.0 0 0 38.7441 9.1042
  L 38.7359 4.4242
  Z"
/>
<path fill="#318662" fill-opacity="0.996" d="
  M 26.05 16.52
  Q 26.50 16.71 27.24 16.42
  L 27.28 18.69
  Q 27.29 19.20 27.80 19.24
  L 30.30 19.46
  Q 29.33 19.91 29.73 20.49
  L 27.78 20.66
  Q 27.27 20.70 27.27 21.22
  L 27.27 32.27
  Q 27.27 32.54 27.53 32.53
  L 30.82 32.48
  A 0.18 0.17 -7.6 0 0 30.99 32.26
  Q 30.15 29.02 33.47 28.68
  Q 38.40 28.17 40.00 30.09
  L 40.00 36.25
  Q 39.05 37.75 37.19 37.73
  C 35.47 37.71 33.88 37.82 32.35 37.52
  Q 31.83 37.42 31.51 37.00
  Q 30.65 35.89 30.91 34.51
  Q 31.04 33.78 30.30 33.78
  L 26.50 33.75
  A 0.50 0.50 0.0 0 1 26.00 33.25
  L 26.03 20.92
  Q 26.03 20.62 25.72 20.61
  L 23.00 20.50
  Q 22.78 20.49 22.75 20.70
  C 20.79 34.32 2.70 34.99 0.00 21.58
  L 0.00 18.26
  Q 1.58 11.66 6.90 9.52
  C 14.07 6.65 21.60 11.01 22.58 18.61
  A 0.79 0.79 0.0 0 0 23.36 19.30
  L 25.45 19.31
  Q 26.06 19.31 26.06 18.70
  L 26.05 16.52
  Z
  M 21.46 19.94
  A 10.11 10.11 0.0 0 0 11.35 9.83
  A 10.11 10.11 0.0 0 0 1.24 19.94
  A 10.11 10.11 0.0 0 0 11.35 30.05
  A 10.11 10.11 0.0 0 0 21.46 19.94
  Z
  M 38.7381 30.8826
  A 1.01 1.01 0.0 0 0 37.7228 29.8779
  L 33.1029 29.9021
  A 1.01 1.01 0.0 0 0 32.0982 30.9174
  L 32.1219 35.4574
  A 1.01 1.01 0.0 0 0 33.1372 36.4621
  L 37.7571 36.4379
  A 1.01 1.01 0.0 0 0 38.7618 35.4226
  L 38.7381 30.8826
  Z"
/>
<path fill="#1b8e74" d="
  M 19.70 19.95
  A 8.36 8.36 0.0 0 1 11.34 28.31
  A 8.36 8.36 0.0 0 1 2.98 19.95
  A 8.36 8.36 0.0 0 1 11.34 11.59
  A 8.36 8.36 0.0 0 1 19.70 19.95
  Z
  M 18.48 19.94
  A 7.14 7.14 0.0 0 0 11.34 12.80
  A 7.14 7.14 0.0 0 0 4.20 19.94
  A 7.14 7.14 0.0 0 0 11.34 27.08
  A 7.14 7.14 0.0 0 0 18.48 19.94
  Z"
/>
<path fill="#1b8e74" d="
  M 10.90 14.95
  L 11.03 14.53
  A 0.27 0.27 0.0 0 1 11.54 14.50
  Q 12.04 15.65 13.24 16.23
  Q 14.34 16.77 14.08 17.86
  Q 13.89 18.64 13.37 18.02
  Q 12.95 17.51 12.38 17.14
  Q 10.89 16.17 9.93 17.49
  A 0.99 0.98 25.9 0 0 10.46 19.01
  L 13.11 19.79
  A 1.85 1.84 -85.6 0 1 14.41 21.31
  Q 14.69 23.36 13.00 23.96
  Q 12.50 24.14 12.15 24.54
  Q 11.83 24.91 11.47 25.29
  Q 10.88 25.94 10.84 25.07
  Q 10.84 24.95 10.79 24.85
  Q 10.61 24.39 10.17 24.20
  Q 8.82 23.62 8.19 22.23
  A 0.44 0.44 0.0 0 1 8.31 21.72
  L 8.66 21.43
  Q 9.00 21.14 9.17 21.55
  C 9.83 23.10 11.72 23.84 12.98 22.43
  A 0.91 0.91 0.0 0 0 12.52 20.93
  Q 11.20 20.61 10.01 20.08
  C 7.81 19.09 8.12 16.41 10.22 15.68
  Q 10.74 15.49 10.90 14.95
  Z"
/>
<path fill="#9c5120" d="
  M 40.00 16.76
  L 40.00 23.30
  Q 36.78 25.65 32.36 24.41
  Q 30.37 23.85 30.87 21.40
  A 0.69 0.69 0.0 0 0 30.52 20.66
  Q 30.15 20.47 29.73 20.49
  Q 29.33 19.91 30.30 19.46
  Q 31.02 19.39 30.84 18.08
  A 2.31 2.30 -9.1 0 1 32.71 15.51
  Q 37.49 14.62 40.00 16.76
  Z
  M 38.74 17.54
  A 0.82 0.82 0.0 0 0 37.92 16.72
  L 32.94 16.72
  A 0.82 0.82 0.0 0 0 32.12 17.54
  L 32.12 22.44
  A 0.82 0.82 0.0 0 0 32.94 23.26
  L 37.92 23.26
  A 0.82 0.82 0.0 0 0 38.74 22.44
  L 38.74 17.54
  Z"
/>
</svg>
