<?xml version="1.0" encoding="UTF-8" standalone="no"?>
<!DOCTYPE svg PUBLIC "-//W3C//DTD SVG 1.1//EN" "http://www.w3.org/Graphics/SVG/1.1/DTD/svg11.dtd">
<svg xmlns="http://www.w3.org/2000/svg" version="1.1" viewBox="0.00 0.00 40.00 40.00">
<path fill="#4b7551" fill-opacity="0.996" d="
  M 34.29 35.74
  L 33.56 36.68
  A 1.09 1.09 0.0 0 1 32.72 37.10
  Q 31.65 37.14 31.02 36.42
  Q 30.66 36.02 30.14 35.89
  Q 28.80 35.53 27.38 35.16
  Q 26.14 34.84 24.83 34.85
  Q 13.91 34.97 1.27 34.86
  Q 0.65 34.86 0.56 34.25
  C -0.40 28.09 3.33 26.41 8.07 24.92
  C 9.45 24.48 10.20 23.60 11.34 22.84
  A 1.82 1.81 -38.4 0 0 11.66 20.09
  Q 10.61 18.99 10.19 17.37
  Q 10.02 16.73 9.39 16.53
  Q 9.20 16.47 8.99 16.51
  Q 8.46 16.61 8.22 16.12
  Q 6.76 13.16 8.25 11.25
  Q 8.58 10.82 8.51 10.29
  C 7.63 3.80 15.38 1.01 19.90 4.35
  Q 20.29 4.64 20.78 4.59
  C 25.12 4.12 24.07 8.18 23.61 10.61
  A 1.00 1.00 0.0 0 0 23.93 11.55
  C 25.07 12.54 24.14 14.76 23.75 15.99
  Q 23.56 16.60 22.93 16.52
  Q 22.71 16.49 22.49 16.53
  A 0.85 0.85 0.0 0 0 21.83 17.18
  Q 21.44 18.85 20.24 20.15
  A 1.81 1.81 0.0 0 0 20.45 22.79
  Q 23.40 25.11 27.51 26.23
  A 0.80 0.76 37.1 0 0 28.11 26.16
  L 28.64 25.86
  A 0.47 0.45 36.7 0 1 28.96 25.82
  Q 30.36 26.22 31.36 25.26
  Q 31.86 24.78 32.55 24.75
  Q 33.42 24.71 33.81 25.51
  Q 34.14 26.19 34.86 25.97
  Q 36.35 25.53 37.28 27.08
  Q 37.56 27.54 37.23 27.97
  L 37.05 28.18
  Q 36.85 28.43 37.00 28.72
  Q 37.25 29.24 37.80 29.35
  A 0.79 0.79 0.0 0 1 38.42 29.96
  Q 38.61 30.76 38.50 31.61
  Q 38.43 32.17 37.87 32.23
  Q 37.71 32.25 37.56 32.29
  A 0.77 0.77 0.0 0 0 37.06 32.79
  Q 36.89 33.30 37.22 33.76
  Q 37.52 34.19 37.27 34.66
  Q 36.47 36.18 35.06 35.55
  Q 34.60 35.35 34.29 35.74
  Z
  M 19.97 8.79
  L 22.34 10.34
  Q 22.92 10.72 23.01 10.03
  L 23.40 7.13
  A 1.65 1.64 -89.0 0 0 21.61 5.27
  L 20.25 5.41
  Q 19.77 5.46 19.43 5.12
  Q 17.27 2.98 13.83 3.93
  Q 8.38 5.44 9.31 10.75
  Q 9.42 11.39 9.91 10.97
  Q 12.35 8.87 15.51 9.40
  Q 17.45 9.72 18.97 8.77
  Q 19.48 8.46 19.97 8.79
  Z
  M 20.25 10.58
  Q 20.26 10.25 20.10 9.96
  Q 19.84 9.50 19.33 9.66
  Q 17.18 10.37 14.68 10.09
  Q 11.74 9.77 10.13 12.16
  A 1.08 1.06 61.4 0 0 9.94 12.83
  Q 10.19 18.11 13.75 21.16
  C 15.06 22.29 16.94 22.28 18.24 21.14
  Q 22.06 17.78 21.99 11.85
  Q 21.99 11.25 21.40 11.08
  Q 21.27 11.04 21.15 11.11
  Q 20.23 11.65 20.25 10.58
  Z
  M 9.38 15.30
  Q 9.42 14.05 8.98 12.52
  Q 8.70 11.52 8.46 12.53
  Q 8.08 14.17 8.84 15.44
  Q 9.35 16.28 9.38 15.30
  Z
  M 22.40 15.32
  A 0.32 0.32 0.0 0 0 22.99 15.55
  Q 23.99 13.97 23.46 12.30
  Q 23.19 11.43 23.01 12.33
  L 22.40 15.32
  Z
  M 18.47 21.92
  C 16.89 23.03 14.86 23.00 13.43 21.89
  Q 12.88 21.45 12.72 22.14
  L 12.64 22.52
  Q 12.48 23.17 12.99 23.63
  L 15.58 25.97
  Q 16.03 26.37 16.45 25.94
  Q 17.56 24.80 18.74 23.87
  Q 19.26 23.45 19.25 22.77
  Q 19.25 22.50 19.21 22.24
  Q 19.09 21.49 18.47 21.92
  Z
  M 13.61 28.76
  L 14.98 27.62
  A 0.66 0.66 0.0 0 0 15.07 26.69
  L 14.99 26.59
  A 4.59 1.23 50.3 0 0 11.11 23.85
  L 10.62 24.25
  A 4.59 1.23 50.3 0 0 12.60 28.57
  L 12.68 28.67
  A 0.66 0.66 0.0 0 0 13.61 28.76
  Z
  M 21.36 25.32
  Q 21.88 24.87 21.13 24.14
  A 1.14 1.14 0.0 0 0 19.59 24.12
  L 17.24 26.23
  Q 16.68 26.74 17.11 27.37
  L 18.01 28.65
  Q 18.56 29.45 19.20 28.72
  Q 20.36 27.39 21.07 25.72
  Q 21.17 25.49 21.36 25.32
  Z
  M 12.80 30.06
  A 0.41 0.41 0.0 0 1 12.39 29.87
  L 9.73 25.46
  A 0.41 0.41 0.0 0 0 9.24 25.29
  L 8.33 25.62
  A 0.41 0.41 0.0 0 0 8.10 26.17
  L 11.32 33.79
  A 0.41 0.41 0.0 0 0 11.67 34.04
  L 13.60 34.21
  A 0.41 0.41 0.0 0 0 14.04 33.85
  L 14.43 30.35
  A 0.41 0.41 0.0 0 0 13.97 29.90
  L 12.80 30.06
  Z
  M 18.89 30.07
  L 18.26 30.01
  Q 17.46 29.94 17.54 30.74
  L 17.77 33.34
  Q 17.83 33.94 18.42 34.06
  Q 19.31 34.24 20.12 34.00
  Q 20.56 33.87 20.74 33.45
  L 23.86 26.13
  A 0.41 0.40 21.9 0 0 23.62 25.58
  L 23.02 25.37
  A 0.80 0.80 0.0 0 0 22.08 25.70
  L 19.58 29.72
  Q 19.34 30.11 18.89 30.07
  Z
  M 34.86 34.75
  Q 35.53 35.22 36.12 34.69
  Q 36.52 34.32 36.31 33.82
  Q 35.98 33.02 36.37 32.27
  Q 36.60 31.82 37.07 31.63
  Q 37.66 31.40 37.68 30.81
  A 0.97 0.97 0.0 0 0 37.08 29.87
  Q 35.67 29.31 36.32 27.98
  A 0.85 0.84 4.8 0 0 35.32 26.80
  Q 33.73 27.26 32.95 25.76
  Q 32.58 25.06 32.09 25.68
  Q 30.97 27.11 28.95 26.77
  Q 28.16 26.63 28.26 27.43
  Q 28.32 27.92 28.55 28.38
  Q 28.82 28.94 28.31 29.29
  L 27.42 29.91
  A 1.00 1.00 0.0 0 0 27.34 31.48
  Q 29.04 32.99 28.33 33.80
  A 0.56 0.56 0.0 0 0 28.75 34.73
  Q 30.75 34.73 31.97 36.04
  Q 32.39 36.49 32.80 36.03
  L 33.84 34.87
  Q 34.29 34.35 34.86 34.75
  Z
  M 1.14 33.43
  A 0.60 0.60 0.0 0 0 1.74 34.08
  L 9.75 34.13
  A 0.60 0.60 0.0 0 0 10.30 33.30
  L 7.37 26.41
  A 0.60 0.60 0.0 0 0 6.51 26.13
  L 1.83 28.93
  A 0.60 0.60 0.0 0 0 1.54 29.39
  L 1.14 33.43
  Z
  M 26.95 27.02
  L 26.04 26.45
  Q 24.86 25.70 24.31 27.00
  L 21.44 33.78
  Q 21.31 34.09 21.64 34.09
  L 27.34 34.12
  A 0.31 0.30 -82.0 0 0 27.65 33.88
  Q 27.73 33.55 27.67 33.20
  A 1.09 1.08 10.6 0 0 27.18 32.49
  Q 25.01 31.14 27.17 28.95
  Q 28.26 27.85 26.95 27.02
  Z
  M 15.53 27.88
  Q 14.75 28.39 14.78 29.23
  Q 14.81 29.93 15.51 29.94
  L 16.51 29.97
  Q 17.27 29.99 17.12 29.24
  Q 16.91 28.20 15.99 27.24
  Q 15.74 26.98 15.79 27.34
  Q 15.80 27.45 15.77 27.56
  Q 15.70 27.76 15.53 27.88
  Z
  M 17.0021 31.3407
  A 0.49 0.49 0.0 0 0 16.5172 30.8456
  L 15.4573 30.8345
  A 0.49 0.49 0.0 0 0 14.9622 31.3194
  L 14.9379 33.6393
  A 0.49 0.49 0.0 0 0 15.4228 34.1344
  L 16.4827 34.1455
  A 0.49 0.49 0.0 0 0 16.9778 33.6606
  L 17.0021 31.3407
  Z"
/>
<path fill="#725c28" fill-opacity="0.992" d="
  M 36.27 16.55
  L 36.33 13.52
  A 0.65 0.64 0.9 0 1 36.98 12.90
  L 38.94 12.90
  Q 39.48 12.90 39.49 13.44
  L 39.51 23.05
  A 0.78 0.78 0.0 0 1 38.60 23.82
  Q 36.23 23.43 33.82 23.98
  Q 33.11 24.14 32.98 23.42
  Q 32.54 20.93 32.89 19.30
  Q 33.44 16.78 33.40 19.25
  L 33.35 22.54
  A 0.66 0.66 0.0 0 0 34.04 23.21
  L 34.54 23.19
  Q 35.25 23.17 35.25 22.46
  L 35.24 18.01
  Q 35.24 17.48 34.71 17.42
  Q 34.17 17.37 33.65 17.64
  Q 33.12 17.91 33.12 17.32
  L 33.12 17.02
  Q 33.12 16.81 33.32 16.72
  Q 34.53 16.21 35.67 16.88
  Q 36.25 17.23 36.27 16.55
  Z
  M 38.9144 14.3092
  A 0.47 0.47 0.0 0 0 38.4577 13.8263
  L 37.4181 13.7973
  A 0.47 0.47 0.0 0 0 36.9351 14.2540
  L 36.7056 22.4708
  A 0.47 0.47 0.0 0 0 37.1623 22.9537
  L 38.2019 22.9827
  A 0.47 0.47 0.0 0 0 38.6849 22.5260
  L 38.9144 14.3092
  Z"
/>
<path fill="#725c28" fill-opacity="0.992" d="
  M 28.82 22.27
  L 28.95 15.53
  A 0.63 0.63 0.0 0 1 29.50 14.92
  Q 30.50 14.78 31.49 14.98
  Q 32.06 15.10 32.12 15.67
  Q 32.58 19.50 32.05 23.50
  Q 31.98 24.00 31.48 24.06
  Q 30.11 24.22 28.81 23.46
  Q 28.49 23.27 28.17 23.46
  Q 27.07 24.08 25.73 23.86
  A 0.63 0.63 0.0 0 1 25.21 23.24
  L 25.25 19.11
  Q 25.26 18.37 26.01 18.36
  L 27.66 18.36
  Q 28.32 18.36 28.29 19.02
  Q 28.23 20.26 28.03 21.55
  Q 27.93 22.21 27.66 21.60
  Q 27.41 21.02 27.65 20.35
  Q 27.91 19.57 27.19 19.18
  L 26.80 18.98
  A 0.51 0.51 0.0 0 0 26.05 19.41
  L 25.96 22.73
  A 0.44 0.44 0.0 0 0 26.61 23.12
  Q 27.47 22.65 28.44 22.64
  Q 28.81 22.64 28.82 22.27
  Z
  M 31.3357 16.1715
  A 0.54 0.54 0.0 0 0 30.7966 15.6305
  L 30.2167 15.6295
  A 0.54 0.54 0.0 0 0 29.6757 16.1686
  L 29.6643 22.7085
  A 0.54 0.54 0.0 0 0 30.2034 23.2495
  L 30.7833 23.2505
  A 0.54 0.54 0.0 0 0 31.3243 22.7114
  L 31.3357 16.1715
  Z"
/>
<path fill="#4b7551" fill-opacity="0.996" d="
  M 35.44 30.80
  A 3.11 3.11 0.0 0 1 32.33 33.91
  A 3.11 3.11 0.0 0 1 29.22 30.80
  A 3.11 3.11 0.0 0 1 32.33 27.69
  A 3.11 3.11 0.0 0 1 35.44 30.80
  Z
  M 34.71 30.80
  A 2.37 2.37 0.0 0 0 32.34 28.43
  A 2.37 2.37 0.0 0 0 29.97 30.80
  A 2.37 2.37 0.0 0 0 32.34 33.17
  A 2.37 2.37 0.0 0 0 34.71 30.80
  Z"
/>
</svg>
