<?xml version="1.0" encoding="UTF-8" standalone="no"?>
<!DOCTYPE svg PUBLIC "-//W3C//DTD SVG 1.1//EN" "http://www.w3.org/Graphics/SVG/1.1/DTD/svg11.dtd">
<svg xmlns="http://www.w3.org/2000/svg" version="1.1" viewBox="0.00 0.00 40.00 40.00">
<g stroke-width="2.00" fill="none" stroke-linecap="butt">
<path stroke="#646746" stroke-opacity="0.996" vector-effect="non-scaling-stroke" d="
  M 34.00 11.71
  Q 33.61 11.50 33.16 11.77"
/>
<path stroke="#646746" stroke-opacity="0.996" vector-effect="non-scaling-stroke" d="
  M 12.13 29.24
  Q 12.15 29.91 11.49 29.75"
/>
<path stroke="#4e6241" stroke-opacity="0.631" vector-effect="non-scaling-stroke" d="
  M 19.13 18.88
  Q 17.56 20.85 18.33 23.34
  Q 18.51 23.91 19.09 23.79
  Q 20.26 23.53 21.40 23.71
  Q 21.94 23.80 21.93 23.26
  L 21.85 18.77
  Q 21.84 18.20 21.27 18.15
  L 19.76 18.01
  Q 19.40 17.98 19.22 18.29
  Q 19.06 18.57 19.13 18.88"
/>
</g>
<path fill="#1e8770" fill-opacity="0.996" d="
  M 34.00 11.71
  Q 33.61 11.50 33.16 11.77
  Q 32.13 9.73 29.60 11.27
  A 1.39 1.39 0.0 0 1 27.90 11.06
  Q 25.69 8.85 22.40 8.22
  Q 21.59 8.07 21.79 7.28
  Q 22.60 3.99 18.74 4.48
  Q 17.13 4.69 17.26 6.31
  L 17.35 7.58
  A 0.80 0.79 79.8 0 1 16.78 8.41
  Q 13.11 9.45 10.94 12.19
  Q 10.63 12.58 10.21 12.31
  L 8.73 11.35
  Q 8.32 11.08 7.86 11.23
  Q 6.47 11.65 5.89 13.77
  Q 5.58 14.91 6.64 15.44
  L 7.84 16.04
  Q 8.41 16.32 8.30 16.95
  Q 7.63 20.60 8.58 24.10
  Q 8.69 24.53 8.29 24.72
  L 6.84 25.40
  Q 6.10 25.74 6.22 26.56
  Q 6.50 28.46 7.90 29.46
  Q 8.49 29.89 9.09 29.48
  L 10.45 28.54
  Q 10.89 28.24 11.36 28.50
  Q 11.79 28.74 12.13 29.24
  Q 12.15 29.91 11.49 29.75
  Q 10.70 29.14 9.61 30.16
  A 1.34 1.29 -66.1 0 1 8.75 30.51
  C 6.44 30.59 4.78 27.30 5.61 25.40
  Q 5.79 24.97 6.21 24.78
  L 7.13 24.37
  Q 7.75 24.08 7.54 23.43
  Q 7.16 22.24 7.23 21.02
  Q 7.26 20.50 6.74 20.50
  L 4.50 20.50
  Q 3.92 20.50 3.61 20.99
  C 2.51 22.73 -0.03 21.57 0.61 19.41
  A 1.53 1.53 0.0 0 1 3.08 18.68
  Q 4.52 19.93 6.83 19.59
  Q 7.31 19.52 7.23 19.04
  Q 7.12 18.28 7.35 17.58
  A 0.77 0.77 0.0 0 0 6.87 16.60
  Q 3.89 15.57 5.53 12.31
  Q 7.16 9.09 9.83 11.02
  Q 10.24 11.32 10.65 11.00
  L 12.70 9.37
  Q 13.12 9.04 12.86 8.58
  L 11.93 6.94
  A 1.19 1.18 78.8 0 0 11.07 6.36
  Q 9.55 6.15 9.40 4.67
  A 1.66 1.66 0.0 0 1 11.09 2.86
  Q 12.04 2.89 12.58 3.73
  Q 12.87 4.20 12.73 4.73
  Q 12.23 6.51 13.70 8.15
  Q 14.00 8.49 14.44 8.38
  Q 15.58 8.10 16.33 7.36
  Q 16.61 7.08 16.52 6.69
  C 15.88 3.89 18.29 3.57 20.31 3.67
  C 21.97 3.76 23.05 4.99 22.70 6.64
  Q 22.53 7.43 23.33 7.56
  Q 24.32 7.70 25.18 8.25
  Q 25.79 8.63 26.29 8.11
  Q 27.75 6.61 27.29 4.92
  A 1.63 1.63 0.0 0 1 29.45 2.97
  Q 30.25 3.28 30.53 4.12
  A 1.61 1.60 73.0 0 1 29.44 6.18
  Q 27.79 6.64 27.12 8.58
  Q 26.98 8.99 27.25 9.34
  Q 28.80 11.34 30.47 9.84
  Q 30.90 9.46 31.46 9.54
  Q 33.29 9.80 34.00 11.71
  Z
  M 29.6837 4.1754
  A 0.90 0.76 -25.3 0 0 28.5452 3.8729
  A 0.90 0.76 -25.3 0 0 28.0563 4.9446
  A 0.90 0.76 -25.3 0 0 29.1948 5.2471
  A 0.90 0.76 -25.3 0 0 29.6837 4.1754
  Z
  M 10.20 4.40
  Q 9.91 5.00 10.92 5.30
  A 0.90 0.89 25.6 0 0 11.92 4.95
  Q 12.23 4.50 11.83 4.12
  A 1.03 1.02 34.9 0 0 10.20 4.40
  Z
  M 1.82 19.30
  A 0.72 0.72 0.0 0 0 1.51 20.51
  Q 1.93 20.92 2.52 20.77
  A 0.70 0.70 0.0 0 0 2.97 19.78
  Q 2.62 19.08 1.82 19.30
  Z"
/>
<path fill="#566d49" fill-opacity="0.996" d="
  M 28.54 20.03
  A 8.55 8.55 0.0 0 1 19.99 28.58
  A 8.55 8.55 0.0 0 1 11.44 20.03
  A 8.55 8.55 0.0 0 1 19.99 11.48
  A 8.55 8.55 0.0 0 1 28.54 20.03
  Z
  M 27.68 20.04
  A 7.68 7.68 0.0 0 0 20.00 12.36
  A 7.68 7.68 0.0 0 0 12.32 20.04
  A 7.68 7.68 0.0 0 0 20.00 27.72
  A 7.68 7.68 0.0 0 0 27.68 20.04
  Z"
/>
<path fill="#a9471b" fill-opacity="0.996" d="
  M 33.16 11.77
  Q 33.61 11.50 34.00 11.71
  Q 35.75 14.49 32.87 15.80
  Q 32.19 16.11 32.45 16.81
  Q 32.79 17.76 32.74 18.79
  Q 32.71 19.34 33.24 19.48
  Q 35.54 20.07 36.77 18.70
  Q 37.17 18.25 37.78 18.30
  C 40.01 18.49 40.12 21.38 37.93 21.74
  Q 37.26 21.86 36.82 21.34
  Q 35.74 20.07 33.27 20.51
  Q 32.84 20.58 32.80 21.01
  L 32.62 22.91
  A 0.52 0.52 0.0 0 0 32.97 23.44
  Q 36.17 24.52 34.48 27.70
  Q 32.74 31.02 30.10 29.01
  Q 29.65 28.66 29.22 29.04
  L 27.20 30.83
  Q 26.85 31.14 27.10 31.54
  L 28.16 33.24
  Q 28.48 33.75 29.08 33.81
  Q 30.00 33.90 30.45 34.71
  A 1.62 1.62 0.0 0 1 29.71 36.96
  Q 28.36 37.59 27.44 36.38
  Q 27.01 35.82 27.22 35.10
  A 2.75 2.29 -78.4 0 0 25.39 31.69
  Q 24.78 31.63 23.87 32.38
  Q 23.41 32.76 23.52 33.34
  C 24.13 36.54 21.36 36.48 19.27 36.35
  C 17.74 36.26 17.03 34.80 17.25 33.42
  Q 17.34 32.80 16.75 32.59
  L 14.47 31.74
  Q 13.87 31.52 13.56 32.08
  L 12.64 33.74
  A 1.12 1.11 46.9 0 0 12.61 34.78
  Q 13.25 36.08 12.03 36.88
  A 1.71 1.71 0.0 0 1 9.68 36.42
  Q 9.06 35.51 9.60 34.65
  Q 9.89 34.19 10.41 34.03
  Q 12.28 33.44 12.88 31.47
  Q 13.03 30.99 12.64 30.67
  L 11.49 29.75
  Q 12.15 29.91 12.13 29.24
  Q 14.69 31.17 17.37 31.82
  Q 18.55 32.10 18.20 33.27
  Q 17.61 35.24 19.43 35.46
  Q 20.51 35.58 21.70 35.49
  Q 22.23 35.46 22.46 34.99
  Q 22.96 34.01 22.62 32.87
  Q 22.31 31.85 23.33 31.56
  Q 26.70 30.59 29.13 27.90
  Q 29.59 27.39 30.09 27.87
  Q 30.77 28.54 31.61 28.86
  Q 32.55 29.23 33.04 28.35
  L 34.21 26.22
  Q 34.69 25.35 33.83 24.87
  L 32.00 23.85
  Q 31.51 23.57 31.64 23.03
  Q 32.49 19.43 31.38 16.14
  Q 31.20 15.59 31.72 15.32
  L 33.25 14.55
  Q 33.76 14.29 33.77 13.72
  Q 33.79 12.71 33.16 11.77
  Z
  M 38.7098 20.0684
  A 0.96 0.76 1.1 0 0 37.7646 19.2901
  A 0.96 0.76 1.1 0 0 36.7902 20.0316
  A 0.96 0.76 1.1 0 0 37.7354 20.8099
  A 0.96 0.76 1.1 0 0 38.7098 20.0684
  Z
  M 10.48 34.94
  A 0.54 0.54 0.0 0 0 10.24 35.66
  Q 10.60 36.39 11.48 36.14
  A 0.72 0.69 13.9 0 0 11.79 35.96
  Q 12.10 35.64 12.04 35.26
  Q 11.97 34.78 11.49 34.74
  Q 10.96 34.70 10.48 34.94
  Z
  M 28.36 34.77
  Q 28.09 34.83 28.04 35.10
  Q 27.95 35.53 28.19 35.90
  Q 28.44 36.30 28.90 36.27
  Q 29.30 36.25 29.56 35.94
  Q 29.98 35.46 29.50 35.04
  Q 29.03 34.62 28.36 34.77
  Z"
/>
<path fill="#566d49" fill-opacity="0.996" d="
  M 18.55 18.68
  Q 18.48 18.02 18.64 17.40
  Q 18.73 17.02 19.12 16.95
  Q 20.67 16.68 21.46 17.63
  Q 21.87 18.12 21.93 17.49
  L 22.08 15.93
  A 0.70 0.69 -4.6 0 1 22.61 15.31
  Q 23.56 15.07 24.43 15.41
  Q 24.87 15.57 24.87 16.04
  L 24.84 23.98
  A 0.76 0.76 0.0 0 1 24.28 24.71
  Q 22.93 25.07 21.82 24.32
  Q 21.53 24.12 21.27 24.34
  Q 20.03 25.33 18.75 24.38
  Q 18.49 24.19 18.21 24.35
  Q 17.09 24.98 15.84 24.76
  Q 15.24 24.66 15.24 24.05
  L 15.20 19.71
  A 0.76 0.75 -86.4 0 1 16.05 18.95
  L 18.03 19.20
  Q 18.62 19.27 18.55 18.68
  Z
  M 23.9660 16.6710
  A 0.54 0.54 0.0 0 0 23.4269 16.1301
  L 23.3669 16.1300
  A 0.54 0.54 0.0 0 0 22.8260 16.6690
  L 22.8140 23.5090
  A 0.54 0.54 0.0 0 0 23.3531 24.0499
  L 23.4131 24.0500
  A 0.54 0.54 0.0 0 0 23.9540 23.5110
  L 23.9660 16.6710
  Z
  M 19.13 18.88
  Q 17.56 20.85 18.33 23.34
  Q 18.51 23.91 19.09 23.79
  Q 20.26 23.53 21.40 23.71
  Q 21.94 23.80 21.93 23.26
  L 21.85 18.77
  Q 21.84 18.20 21.27 18.15
  L 19.76 18.01
  Q 19.40 17.98 19.22 18.29
  Q 19.06 18.57 19.13 18.88
  Z
  M 17.13 23.66
  L 17.15 20.29
  Q 17.15 20.00 16.86 19.99
  L 16.50 19.98
  Q 16.18 19.97 16.13 20.28
  Q 15.83 21.98 16.26 23.95
  Q 16.29 24.07 16.41 24.07
  L 16.74 24.06
  Q 17.13 24.05 17.13 23.66
  Z"
/>
<path fill="#2f3721" fill-opacity="0.263" d="
  M 19.13 18.88
  Q 19.06 18.57 19.22 18.29
  Q 19.40 17.98 19.76 18.01
  L 21.27 18.15
  Q 21.84 18.20 21.85 18.77
  L 21.93 23.26
  Q 21.94 23.80 21.40 23.71
  Q 20.26 23.53 19.09 23.79
  Q 18.51 23.91 18.33 23.34
  Q 17.56 20.85 19.13 18.88
  Z
  M 19.25 19.66
  Q 18.89 19.66 18.90 20.11
  A 0.41 0.40 -77.5 0 0 19.13 20.48
  Q 19.69 20.75 20.24 20.58
  Q 20.89 20.36 20.51 19.79
  Q 20.33 19.51 20.31 19.18
  Q 20.29 18.83 19.96 18.95
  Q 19.77 19.03 19.76 19.18
  Q 19.73 19.66 19.25 19.66
  Z"
/>
<path fill="#353c24" fill-opacity="0.725" d="
  M 19.76 19.18
  Q 19.77 19.03 19.96 18.95
  Q 20.29 18.83 20.31 19.18
  Q 20.33 19.51 20.51 19.79
  Q 20.89 20.36 20.24 20.58
  Q 19.69 20.75 19.13 20.48
  A 0.41 0.40 -77.5 0 1 18.90 20.11
  Q 18.89 19.66 19.25 19.66
  Q 19.73 19.66 19.76 19.18
  Z"
/>
</svg>
